<svg version="1.1" id="Layer_1" xmlns="http://www.w3.org/2000/svg" xmlns:xlink="http://www.w3.org/1999/xlink" x="0px" y="0px"
	 width="100%" viewBox="0 0 1080 1080" enable-background="new 0 0 1080 1080" xml:space="preserve">
<path fill="#FCE8C9" opacity="1.000000" stroke="none" 
	d="
M1081.000000,282.000000 
	C1081.000000,548.635925 1081.000000,814.771790 1081.000000,1080.953857 
	C721.072388,1080.953857 361.144806,1080.953857 1.108608,1080.953857 
	C1.108608,721.114075 1.108608,361.228088 1.108608,1.171050 
	C360.999939,1.171050 720.999939,1.171050 1081.000000,1.171050 
	C1081.000000,94.521973 1081.000000,188.010986 1081.000000,282.000000 
M827.853638,86.692680 
	C757.304810,41.720482 680.154846,15.678349 597.204529,6.284817 
	C543.252258,0.175106 489.683197,3.179265 436.538086,13.740105 
	C341.878723,32.550545 258.381744,74.209618 185.982178,137.878128 
	C133.069122,184.410110 90.763603,239.250549 59.438034,302.481628 
	C26.430136,369.108490 7.795144,439.535278 4.129930,513.762756 
	C0.260734,592.121277 12.705987,667.874084 42.061104,740.752625 
	C76.266663,825.672974 129.025955,897.058472 199.274170,955.519897 
	C250.293350,997.978638 307.505066,1029.562744 370.418671,1050.713135 
	C445.856262,1076.073730 523.199463,1083.908203 602.219360,1075.068115 
	C671.306396,1067.339355 736.418335,1046.537842 797.395081,1013.363770 
	C860.959656,978.781921 915.351318,932.982178 960.584717,876.413940 
	C1010.262878,814.287109 1044.894409,744.718384 1063.408936,667.308899 
	C1075.452026,616.956116 1080.926636,565.932556 1078.019287,514.091370 
	C1074.476196,450.915588 1061.142212,389.907166 1036.144165,331.822296 
	C991.960693,229.158646 922.691345,147.450500 827.853638,86.692680 
z"/>
<path fill="#204B57" opacity="1.000000" stroke="none" 
	d="
M828.152466,86.897446 
	C922.691345,147.450500 991.960693,229.158646 1036.144165,331.822296 
	C1061.142212,389.907166 1074.476196,450.915588 1078.019287,514.091370 
	C1080.926636,565.932556 1075.452026,616.956116 1063.408936,667.308899 
	C1044.894409,744.718384 1010.262878,814.287109 960.584717,876.413940 
	C915.351318,932.982178 860.959656,978.781921 797.395081,1013.363770 
	C736.418335,1046.537842 671.306396,1067.339355 602.219360,1075.068115 
	C523.199463,1083.908203 445.856262,1076.073730 370.418671,1050.713135 
	C307.505066,1029.562744 250.293350,997.978638 199.274170,955.519897 
	C129.025955,897.058472 76.266663,825.672974 42.061104,740.752625 
	C12.705987,667.874084 0.260734,592.121277 4.129930,513.762756 
	C7.795144,439.535278 26.430136,369.108490 59.438034,302.481628 
	C90.763603,239.250549 133.069122,184.410110 185.982178,137.878128 
	C258.381744,74.209618 341.878723,32.550545 436.538086,13.740105 
	C489.683197,3.179265 543.252258,0.175106 597.204529,6.284817 
	C680.154846,15.678349 757.304810,41.720482 828.152466,86.897446 
M218.450058,140.961502 
	C210.550827,147.615280 202.344681,153.940292 194.805054,160.979248 
	C160.672806,192.844986 130.584793,228.077240 105.694305,267.729095 
	C71.634811,321.987640 48.411118,380.445953 36.280258,443.326508 
	C23.331787,510.445099 23.652517,577.547241 37.416016,644.465210 
	C55.133289,730.606140 92.838539,807.094116 149.730820,874.133240 
	C191.175705,922.969910 240.146576,962.701172 296.372467,993.179810 
	C360.210449,1027.784912 428.504883,1047.969849 501.016724,1053.489014 
	C572.090637,1058.898804 641.453552,1050.417969 708.772278,1026.935669 
	C802.722412,994.163513 880.705200,938.630920 943.003601,861.057434 
	C983.551331,810.567627 1013.123657,754.216248 1032.426270,692.494690 
	C1051.907349,630.202698 1058.372925,566.388428 1053.652954,501.378021 
	C1050.829346,462.487396 1043.583496,424.401276 1031.769287,387.261688 
	C1012.583374,326.948242 983.433716,271.887695 944.077637,222.227646 
	C909.837952,179.023468 869.737427,142.237961 823.830139,111.817299 
	C775.762817,79.965302 723.741028,56.751183 667.853699,42.594368 
	C592.193481,23.428883 515.893188,21.483707 439.414795,36.913490 
	C357.582611,53.423428 284.087860,88.134682 218.450058,140.961502 
z"/>
<path fill="#F3E1C4" opacity="1.000000" stroke="none" 
	d="
M218.734619,140.747772 
	C284.087860,88.134682 357.582611,53.423428 439.414795,36.913490 
	C515.893188,21.483707 592.193481,23.428883 667.853699,42.594368 
	C723.741028,56.751183 775.762817,79.965302 823.830139,111.817299 
	C869.737427,142.237961 909.837952,179.023468 944.077637,222.227646 
	C983.433716,271.887695 1012.583374,326.948242 1031.769287,387.261688 
	C1043.583496,424.401276 1050.829346,462.487396 1053.652954,501.378021 
	C1058.372925,566.388428 1051.907349,630.202698 1032.426270,692.494690 
	C1013.123657,754.216248 983.551331,810.567627 943.003601,861.057434 
	C880.705200,938.630920 802.722412,994.163513 708.772278,1026.935669 
	C641.453552,1050.417969 572.090637,1058.898804 501.016724,1053.489014 
	C428.504883,1047.969849 360.210449,1027.784912 296.372467,993.179810 
	C240.146576,962.701172 191.175705,922.969910 149.730820,874.133240 
	C92.838539,807.094116 55.133289,730.606140 37.416016,644.465210 
	C23.652517,577.547241 23.331787,510.445099 36.280258,443.326508 
	C48.411118,380.445953 71.634811,321.987640 105.694305,267.729095 
	C130.584793,228.077240 160.672806,192.844986 194.805054,160.979248 
	C202.344681,153.940292 210.550827,147.615280 218.734619,140.747772 
M800.763428,972.332886 
	C829.228699,954.828552 856.075256,935.074097 880.665466,912.486816 
	C926.905640,870.013000 964.167175,820.695984 992.205566,764.388428 
	C1023.190857,702.162720 1040.463623,636.314148 1043.893799,567.045898 
	C1047.978882,484.554871 1033.206665,405.473785 998.255493,330.366547 
	C960.664734,249.587006 905.738525,183.146545 833.340210,131.302597 
	C773.814819,88.676880 708.094910,60.224342 636.061035,46.503696 
	C577.003784,35.254791 517.852905,34.481617 458.544098,44.225651 
	C400.393280,53.779434 345.713898,73.181053 294.391876,102.090858 
	C232.675781,136.855682 180.690796,182.761246 138.144470,239.310165 
	C105.007591,283.352875 79.999077,331.678894 62.632919,384.020386 
	C39.973652,452.315247 32.902409,522.333130 40.174564,593.691711 
	C46.628918,657.025513 65.016685,716.983459 94.549232,773.464905 
	C130.117355,841.489563 178.654037,898.619141 240.113052,944.424438 
	C316.482086,1001.342163 402.348938,1034.232178 497.328827,1042.569946 
	C547.101318,1046.939209 596.547852,1044.137085 645.479553,1033.623169 
	C700.385681,1021.825317 751.850769,1001.307861 800.763428,972.332886 
z"/>
<path fill="#204B57" opacity="1.000000" stroke="none" 
	d="
M800.449219,972.519714 
	C751.850769,1001.307861 700.385681,1021.825317 645.479553,1033.623169 
	C596.547852,1044.137085 547.101318,1046.939209 497.328827,1042.569946 
	C402.348938,1034.232178 316.482086,1001.342163 240.113052,944.424438 
	C178.654037,898.619141 130.117355,841.489563 94.549232,773.464905 
	C65.016685,716.983459 46.628918,657.025513 40.174564,593.691711 
	C32.902409,522.333130 39.973652,452.315247 62.632919,384.020386 
	C79.999077,331.678894 105.007591,283.352875 138.144470,239.310165 
	C180.690796,182.761246 232.675781,136.855682 294.391876,102.090858 
	C345.713898,73.181053 400.393280,53.779434 458.544098,44.225651 
	C517.852905,34.481617 577.003784,35.254791 636.061035,46.503696 
	C708.094910,60.224342 773.814819,88.676880 833.340210,131.302597 
	C905.738525,183.146545 960.664734,249.587006 998.255493,330.366547 
	C1033.206665,405.473785 1047.978882,484.554871 1043.893799,567.045898 
	C1040.463623,636.314148 1023.190857,702.162720 992.205566,764.388428 
	C964.167175,820.695984 926.905640,870.013000 880.665466,912.486816 
	C856.075256,935.074097 829.228699,954.828552 800.449219,972.519714 
M833.244690,160.206863 
	C808.993835,141.895630 783.579163,125.438728 756.348816,111.863480 
	C664.769226,66.207970 568.145386,51.015610 467.245453,66.518547 
	C375.955658,80.544937 295.194733,118.430305 225.572388,179.430405 
	C159.526657,237.296814 112.331787,307.812378 84.852089,391.240814 
	C60.918686,463.902710 55.077648,538.225220 66.450005,613.845886 
	C74.375175,666.544373 90.937050,716.440613 115.727806,763.642944 
	C146.770264,822.748840 188.491028,873.021484 240.274124,915.032104 
	C281.679016,948.623169 327.573029,974.434814 377.631683,992.539062 
	C443.286255,1016.283691 511.057709,1025.144165 580.699219,1019.357300 
	C649.463440,1013.643372 714.071228,994.254517 774.303528,960.532349 
	C835.544617,926.245300 887.150452,880.890869 928.503723,824.215698 
	C981.296509,751.862427 1011.805176,670.956848 1019.416992,581.602783 
	C1026.122314,502.889496 1014.230408,426.941132 983.421936,354.291077 
	C950.552917,276.782135 900.348755,212.318573 833.244690,160.206863 
z"/>
<path fill="#FDE7C8" opacity="1.000000" stroke="none" 
	d="
M833.518982,160.436371 
	C900.348755,212.318573 950.552917,276.782135 983.421936,354.291077 
	C1014.230408,426.941132 1026.122314,502.889496 1019.416992,581.602783 
	C1011.805176,670.956848 981.296509,751.862427 928.503723,824.215698 
	C887.150452,880.890869 835.544617,926.245300 774.303528,960.532349 
	C714.071228,994.254517 649.463440,1013.643372 580.699219,1019.357300 
	C511.057709,1025.144165 443.286255,1016.283691 377.631683,992.539062 
	C327.573029,974.434814 281.679016,948.623169 240.274124,915.032104 
	C188.491028,873.021484 146.770264,822.748840 115.727806,763.642944 
	C90.937050,716.440613 74.375175,666.544373 66.450005,613.845886 
	C55.077648,538.225220 60.918686,463.902710 84.852089,391.240814 
	C112.331787,307.812378 159.526657,237.296814 225.572388,179.430405 
	C295.194733,118.430305 375.955658,80.544937 467.245453,66.518547 
	C568.145386,51.015610 664.769226,66.207970 756.348816,111.863480 
	C783.579163,125.438728 808.993835,141.895630 833.518982,160.436371 
M395.240814,659.039429 
	C368.865997,644.519043 342.491150,629.998718 315.799896,615.304199 
	C315.224884,631.898682 315.139374,647.394470 314.053741,662.819824 
	C312.151154,689.852173 306.753448,715.932434 291.147949,738.956787 
	C288.976654,742.160278 287.769836,746.205200 286.866394,750.037415 
	C285.417206,756.184448 288.043671,762.848999 293.793549,765.123535 
	C299.189026,767.257751 305.464172,769.095459 311.055084,768.457886 
	C330.177216,766.277100 348.591766,768.649963 366.746521,774.407043 
	C405.481964,786.690430 438.127258,809.112793 468.265411,835.630859 
	C478.519318,844.653015 488.125519,854.440735 498.669342,863.097107 
	C513.758545,875.485168 530.680054,881.272339 549.616821,872.283936 
	C556.614502,868.962524 563.619446,864.854919 569.275818,859.645264 
	C596.237549,834.812439 625.608948,813.217468 656.982727,794.484375 
	C670.919067,786.162964 685.950378,779.473755 700.983093,773.246643 
	C715.991760,767.029419 731.992432,766.929077 748.164001,767.909729 
	C762.831604,768.799072 768.975037,759.984619 764.590881,746.003235 
	C763.357056,742.068359 761.251099,738.403931 759.506897,734.633057 
	C758.253906,731.924255 756.413269,729.370605 755.732178,726.532349 
	C750.058533,702.891541 744.417358,679.239807 739.146729,655.506836 
	C736.850464,645.167236 735.443298,634.630188 733.504761,623.447205 
	C717.791626,631.995972 702.660339,640.228149 686.852295,647.839355 
	C686.564270,646.573547 686.263245,645.310547 685.990356,644.041443 
	C683.455505,632.255737 681.348450,620.355896 678.239807,608.723694 
	C676.286072,601.413269 672.831970,594.503845 670.701965,587.094116 
	C731.481873,553.465393 792.261536,519.836182 853.041748,486.208130 
	C880.443909,471.047211 907.824951,455.847870 935.262024,440.750397 
	C945.388489,435.178192 951.748474,427.068512 951.743591,415.278290 
	C951.738708,403.469299 945.346558,395.425018 935.137451,389.945282 
	C923.544250,383.722687 912.101624,377.219727 900.589294,370.846375 
	C814.463562,323.166382 728.281494,275.587769 642.240112,227.756210 
	C611.773071,210.819138 579.569397,200.098648 544.627441,198.226044 
	C501.742188,195.927780 461.700836,205.629044 424.180847,226.452591 
	C325.721924,281.097076 227.194717,335.618683 128.683426,390.168793 
	C118.810997,395.635590 112.214371,403.539398 112.163689,415.099640 
	C112.113304,426.591553 118.290314,434.768707 128.260727,440.257904 
	C152.629425,453.674133 176.953629,467.171143 201.330490,480.572449 
	C202.706543,481.328949 204.395096,481.517029 206.361603,482.217438 
	C206.573303,482.644012 206.785004,483.070587 206.244934,484.061157 
	C206.054489,486.025970 205.700394,487.990570 205.698120,489.955597 
	C205.662979,520.279053 205.692093,550.602600 205.644394,580.926025 
	C205.639709,583.910034 205.447876,586.928894 204.970566,589.871155 
	C202.223724,606.803406 199.275787,623.703186 196.571060,640.642029 
	C194.288910,654.934143 190.718353,669.229492 190.390793,683.584412 
	C189.520599,721.718872 190.095078,759.886292 190.094940,798.040588 
	C190.094940,799.818970 190.094940,801.597412 190.094940,803.576660 
	C211.106339,803.576660 231.474533,803.576660 252.021042,803.576660 
	C252.115921,801.884644 252.253586,800.571289 252.253952,799.257935 
	C252.264755,760.103943 252.266083,720.950012 252.247070,681.796021 
	C252.246262,680.136047 252.176605,678.452637 251.902679,676.819824 
	C248.789307,658.261963 245.533279,639.727600 242.515808,621.154358 
	C240.408585,608.183899 237.397049,595.206177 236.934723,582.155640 
	C236.044601,557.028687 236.675049,531.847839 236.674927,506.689331 
	C236.674911,504.937286 236.674927,503.185242 236.674927,500.227448 
	C294.472595,532.296997 351.216888,563.782104 407.937134,595.999634 
	C405.967896,601.604065 403.737823,607.132629 402.079773,612.827637 
	C397.666718,627.985352 395.275146,643.448364 395.240814,659.039429 
z"/>
<path fill="#FE7904" opacity="1.000000" stroke="none" 
	d="
M205.938217,481.969635 
	C204.395096,481.517029 202.706543,481.328949 201.330490,480.572449 
	C176.953629,467.171143 152.629425,453.674133 128.260727,440.257904 
	C118.290314,434.768707 112.113304,426.591553 112.163689,415.099640 
	C112.214371,403.539398 118.810997,395.635590 128.683426,390.168793 
	C227.194717,335.618683 325.721924,281.097076 424.180847,226.452591 
	C461.700836,205.629044 501.742188,195.927780 544.627441,198.226044 
	C579.569397,200.098648 611.773071,210.819138 642.240112,227.756210 
	C728.281494,275.587769 814.463562,323.166382 900.589294,370.846375 
	C912.101624,377.219727 923.544250,383.722687 935.137451,389.945282 
	C945.346558,395.425018 951.738708,403.469299 951.743591,415.278290 
	C951.748474,427.068512 945.388489,435.178192 935.262024,440.750397 
	C907.824951,455.847870 880.443909,471.047211 853.041748,486.208130 
	C792.261536,519.836182 731.481873,553.465393 670.133789,586.979797 
	C668.864685,585.734802 668.150696,584.612000 667.464905,583.472290 
	C642.663147,542.251709 606.722229,516.644165 558.839783,511.442841 
	C497.375458,504.766174 449.632996,529.062805 416.108215,581.043579 
	C413.150879,585.628906 410.665649,590.518738 407.961182,595.267151 
	C351.216888,563.782104 294.472595,532.296997 236.674927,500.227448 
	C236.674927,503.185242 236.674911,504.937286 236.674927,506.689331 
	C236.675049,531.847839 236.044601,557.028687 236.934723,582.155640 
	C237.397049,595.206177 240.408585,608.183899 242.515808,621.154358 
	C245.533279,639.727600 248.789307,658.261963 251.902679,676.819824 
	C252.176605,678.452637 252.246262,680.136047 252.247070,681.796021 
	C252.266083,720.950012 252.264755,760.103943 252.253952,799.257935 
	C252.253586,800.571289 252.115921,801.884644 252.021042,803.576660 
	C231.474533,803.576660 211.106339,803.576660 190.094940,803.576660 
	C190.094940,801.597412 190.094940,799.818970 190.094940,798.040588 
	C190.095078,759.886292 189.520599,721.718872 190.390793,683.584412 
	C190.718353,669.229492 194.288910,654.934143 196.571060,640.642029 
	C199.275787,623.703186 202.223724,606.803406 204.970566,589.871155 
	C205.447876,586.928894 205.639709,583.910034 205.644394,580.926025 
	C205.692093,550.602600 205.662979,520.279053 205.698120,489.955597 
	C205.700394,487.990570 206.054489,486.025970 206.895142,484.024719 
	C216.699738,488.978271 225.854126,493.968231 235.333878,499.023071 
	C235.832001,498.711548 236.004776,498.335205 236.281982,497.501953 
	C236.300690,480.536499 236.214966,464.027985 236.548370,447.294434 
	C239.280670,446.921936 241.593796,446.645935 243.906967,446.645447 
	C348.061401,446.624115 452.215820,446.627197 556.370239,446.625153 
	C558.036377,446.625122 559.719116,446.724579 561.359314,446.511017 
	C561.897888,446.440887 562.326416,445.526215 562.911377,444.539734 
	C563.017456,434.640625 563.017456,425.199493 563.017456,415.162384 
	C560.513000,415.162384 558.562195,415.162384 556.611328,415.162384 
	C441.834564,415.162384 327.057800,415.162384 212.281021,415.162720 
	C211.281525,415.162720 210.277008,415.232544 209.283508,415.156555 
	C206.826279,414.968597 205.632385,415.833618 205.650894,418.524872 
	C205.796417,439.672791 205.853729,460.821289 205.938217,481.969635 
z"/>
<path fill="#FE7A05" opacity="1.000000" stroke="none" 
	d="
M687.529053,648.460327 
	C702.660339,640.228149 717.791626,631.995972 733.504761,623.447205 
	C735.443298,634.630188 736.850464,645.167236 739.146729,655.506836 
	C744.417358,679.239807 750.058533,702.891541 755.732178,726.532349 
	C756.413269,729.370605 758.253906,731.924255 759.506897,734.633057 
	C761.251099,738.403931 763.357056,742.068359 764.590881,746.003235 
	C768.975037,759.984619 762.831604,768.799072 748.164001,767.909729 
	C731.992432,766.929077 715.991760,767.029419 700.983093,773.246643 
	C685.950378,779.473755 670.919067,786.162964 656.982727,794.484375 
	C625.608948,813.217468 596.237549,834.812439 569.275818,859.645264 
	C563.619446,864.854919 556.614502,868.962524 549.616821,872.283936 
	C530.680054,881.272339 513.758545,875.485168 498.669342,863.097107 
	C488.125519,854.440735 478.519318,844.653015 468.265411,835.630859 
	C438.127258,809.112793 405.481964,786.690430 366.746521,774.407043 
	C348.591766,768.649963 330.177216,766.277100 311.055084,768.457886 
	C305.464172,769.095459 299.189026,767.257751 293.793549,765.123535 
	C288.043671,762.848999 285.417206,756.184448 286.866394,750.037415 
	C287.769836,746.205200 288.976654,742.160278 291.147949,738.956787 
	C306.753448,715.932434 312.151154,689.852173 314.053741,662.819824 
	C315.139374,647.394470 315.224884,631.898682 315.799896,615.304199 
	C342.491150,629.998718 368.865997,644.519043 395.607910,659.607544 
	C397.799164,704.918762 416.113770,741.527039 451.098816,769.329834 
	C484.296387,795.711975 522.390198,805.052124 564.173706,798.751099 
	C595.500427,794.027039 622.471741,779.948486 644.530029,757.420776 
	C670.471069,730.927673 684.501770,698.855957 686.101318,661.573120 
	C686.289429,657.189819 687.039551,652.830688 687.529053,648.460327 
z"/>
<path fill="#FDE8C9" opacity="1.000000" stroke="none" 
	d="
M236.129242,447.519440 
	C236.214966,464.027985 236.300690,480.536499 236.043549,497.614319 
	C235.469955,498.441803 235.239227,498.700012 235.008514,498.958221 
	C225.854126,493.968231 216.699738,488.978271 207.271027,483.742737 
	C206.785004,483.070587 206.573303,482.644012 206.149902,482.093536 
	C205.853729,460.821289 205.796417,439.672791 205.650894,418.524872 
	C205.632385,415.833618 206.826279,414.968597 209.283508,415.156555 
	C210.277008,415.232544 211.281525,415.162720 212.281021,415.162720 
	C327.057800,415.162384 441.834564,415.162384 556.611328,415.162384 
	C558.562195,415.162384 560.513000,415.162384 563.017456,415.162384 
	C563.017456,425.199493 563.017456,434.640625 562.457153,444.540253 
	C455.610901,444.999146 349.324890,444.999451 243.038864,445.001587 
	C241.539810,445.001617 239.948853,444.722504 238.573044,445.140564 
	C237.606705,445.434174 236.933395,446.692139 236.129242,447.519440 
z"/>
<path fill="#FFDCA8" opacity="1.000000" stroke="none" 
	d="
M687.190674,648.149841 
	C687.039551,652.830688 686.289429,657.189819 686.101318,661.573120 
	C684.501770,698.855957 670.471069,730.927673 644.530029,757.420776 
	C622.471741,779.948486 595.500427,794.027039 564.173706,798.751099 
	C522.390198,805.052124 484.296387,795.711975 451.098816,769.329834 
	C416.113770,741.527039 397.799164,704.918762 395.944763,659.735046 
	C395.275146,643.448364 397.666718,627.985352 402.079773,612.827637 
	C403.737823,607.132629 405.967896,601.604065 407.949158,595.633423 
	C410.665649,590.518738 413.150879,585.628906 416.108215,581.043579 
	C449.632996,529.062805 497.375458,504.766174 558.839783,511.442841 
	C606.722229,516.644165 642.663147,542.251709 667.464905,583.472290 
	C668.150696,584.612000 668.864685,585.734802 669.808228,587.140015 
	C672.831970,594.503845 676.286072,601.413269 678.239807,608.723694 
	C681.348450,620.355896 683.455505,632.255737 685.990356,644.041443 
	C686.263245,645.310547 686.564270,646.573547 687.190674,648.149841 
M638.116943,751.271912 
	C639.102051,750.219727 640.087158,749.167603 641.638489,747.757080 
	C643.428528,745.800964 645.338196,743.940491 646.990356,741.874146 
	C667.283813,716.493347 677.541138,687.516052 677.771973,654.527832 
	C677.518188,654.031616 677.264343,653.535339 677.538757,652.449036 
	C677.363953,649.520447 677.176514,646.592529 677.016357,643.663147 
	C676.107300,627.039795 671.614563,611.380310 664.204590,596.535767 
	C663.538574,595.201477 662.134277,594.235718 661.034424,593.054688 
	C661.034424,593.054688 660.998047,593.008789 661.047546,592.687622 
	C661.047546,592.687622 661.095581,592.366333 661.247131,591.573364 
	C660.706482,590.188965 660.342102,588.700928 659.598450,587.435852 
	C650.303894,571.623474 638.702759,557.835571 623.939148,546.802124 
	C590.861023,522.081482 553.814636,513.464294 513.553955,521.575989 
	C472.550812,529.837219 442.168243,553.597229 421.138123,589.517334 
	C419.344910,592.580139 418.100494,595.964233 416.601135,599.199097 
	C417.036499,599.368896 417.471863,599.538696 417.907227,599.708496 
	C420.600281,595.460144 423.293365,591.211731 426.174194,587.713806 
	C424.760162,590.824158 423.211212,593.882690 421.988037,597.066345 
	C421.360687,598.699280 421.315552,600.555908 420.991486,602.686707 
	C420.991486,602.686707 420.968384,603.061646 420.253479,603.130493 
	C419.453979,604.083862 418.308105,604.911011 417.907654,606.009766 
	C412.954834,619.600098 408.740204,633.351074 408.899170,648.062500 
	C408.913330,649.370789 407.661621,650.692688 407.002075,651.078491 
	C406.336945,633.935730 411.666870,617.875549 416.407501,601.674744 
	C415.504852,601.849426 415.011169,602.103760 414.855560,602.493286 
	C407.433899,621.071228 403.929321,640.391907 404.080872,660.373230 
	C404.089325,661.484070 405.022034,662.587891 405.524536,663.695007 
	C405.918365,663.574402 406.312225,663.453796 406.706055,663.333130 
	C406.803314,661.886230 406.900574,660.439331 407.738647,659.193909 
	C408.166870,661.452942 408.595062,663.711914 408.529510,666.193054 
	C408.052826,666.445312 407.576111,666.697510 406.866364,666.276001 
	C406.221985,666.345398 405.018219,666.400208 405.015991,666.486450 
	C404.972443,668.145569 404.946594,669.824097 405.156708,671.468018 
	C408.171082,695.052429 416.339966,716.630676 430.563507,735.766907 
	C447.931671,759.133911 470.085022,775.998413 498.693420,785.212280 
	C527.703979,794.621460 556.662598,794.344360 585.486633,784.496948 
	C597.985046,780.226990 609.836243,774.600952 620.838257,765.985046 
	C626.424622,761.177185 632.010986,756.369324 638.116943,751.271912 
z"/>
<path fill="#FDE7C8" opacity="1.000000" stroke="none" 
	d="
M236.548386,447.294434 
	C236.933395,446.692139 237.606705,445.434174 238.573044,445.140564 
	C239.948853,444.722504 241.539810,445.001617 243.038864,445.001587 
	C349.324890,444.999451 455.610901,444.999146 562.351074,444.998230 
	C562.326416,445.526215 561.897888,446.440887 561.359314,446.511017 
	C559.719116,446.724579 558.036377,446.625122 556.370239,446.625153 
	C452.215820,446.627197 348.061401,446.624115 243.906967,446.645447 
	C241.593796,446.645935 239.280670,446.921936 236.548386,447.294434 
z"/>
<path fill="#FDE7C8" opacity="1.000000" stroke="none" 
	d="
M235.333878,499.023071 
	C235.239227,498.700012 235.469955,498.441803 235.939117,498.071228 
	C236.004776,498.335205 235.832001,498.711548 235.333878,499.023071 
z"/>
<path fill="#FEDEAD" opacity="1.000000" stroke="none" 
	d="
M420.968384,603.061646 
	C420.968384,603.061646 420.991486,602.686707 421.270355,602.262451 
	C424.115936,597.195190 426.391602,592.358948 429.315063,587.952576 
	C434.158722,580.652039 439.419373,573.628235 444.787933,566.348999 
	C446.857880,564.285583 448.644257,562.361023 450.621399,560.299927 
	C451.059784,559.962830 451.260437,559.722961 451.683960,559.370239 
	C452.368622,558.934753 452.783478,558.572876 453.513031,558.091736 
	C456.908447,555.327942 459.989166,552.683472 463.299072,549.957031 
	C463.823944,549.701904 464.019226,549.450684 464.445282,549.033081 
	C467.561554,547.013062 470.346680,545.081360 473.478943,543.068848 
	C492.168396,532.449585 511.867157,526.335083 533.452515,524.890991 
	C548.280090,524.380127 562.618042,525.029114 576.262207,529.712830 
	C587.360107,533.522522 598.013489,538.626953 609.066711,543.421875 
	C612.351440,545.618774 615.433472,547.551025 618.681641,549.739624 
	C619.858215,550.709473 620.868713,551.422913 622.048645,552.414551 
	C623.120422,553.310669 624.022766,553.928772 625.027954,554.837158 
	C626.613464,556.233582 628.096069,557.339722 629.712097,558.635986 
	C630.052490,559.064819 630.293152,559.262207 630.685913,559.632446 
	C631.024597,560.089172 631.279053,560.288269 631.689453,560.753174 
	C633.716614,562.873230 635.621826,564.684082 637.630554,566.816528 
	C643.681702,575.650635 649.606140,584.179749 655.620789,592.644653 
	C656.105103,593.326233 657.209717,593.567017 658.313904,593.878845 
	C659.400513,593.499634 660.199280,593.254211 660.998047,593.008789 
	C660.998047,593.008789 661.034424,593.054688 661.077881,593.428467 
	C661.574158,594.859619 662.005066,595.927124 662.482971,596.973083 
	C668.317322,609.742615 672.985535,622.846558 673.630981,636.905334 
	C672.879211,636.307129 672.287964,635.859070 672.145081,635.296997 
	C669.986267,626.803772 668.177063,618.208252 665.658813,609.825134 
	C664.244751,605.117737 661.681335,600.755615 659.635742,596.237915 
	C659.104248,596.442139 658.572754,596.646362 658.041199,596.850647 
	C667.514099,615.241028 671.001648,635.075928 673.260376,655.430359 
	C673.506897,654.618591 673.753418,653.806885 674.376221,652.995605 
	C675.505127,653.010498 676.257874,653.024780 677.010559,653.039124 
	C677.264343,653.535339 677.518188,654.031616 677.493347,654.771240 
	C676.482910,657.678894 675.751038,660.343262 674.727539,663.006226 
	C674.241516,663.005310 674.047180,663.005798 673.851929,662.597717 
	C673.738342,660.575195 673.625671,658.961121 673.512939,657.347107 
	C673.008240,657.347168 672.503479,657.347229 671.998718,657.347290 
	C671.727905,658.865479 671.290710,660.375000 671.211243,661.903137 
	C670.088135,683.489563 664.299927,703.687927 653.078552,722.207642 
	C649.485413,728.137817 645.421692,733.782898 641.292358,739.722107 
	C635.521851,745.413574 630.032227,750.941406 624.242981,756.593445 
	C622.469299,757.978638 620.995239,759.239624 619.191345,760.601318 
	C610.176208,765.746948 601.490906,770.791809 592.437927,775.893921 
	C573.616577,783.216736 554.540222,786.828064 534.653748,785.971497 
	C518.886780,785.292419 503.912689,781.199219 488.951813,775.593628 
	C478.287903,769.081116 467.880859,762.803833 457.308044,756.250488 
	C451.584320,750.525635 446.026337,745.076782 440.355347,739.317749 
	C438.961609,737.532776 437.680878,736.057983 436.318726,734.246338 
	C435.633636,732.920288 435.086426,731.891235 434.418030,730.947998 
	C422.865845,714.646484 415.820190,696.509888 412.287262,676.918640 
	C411.681458,673.559448 410.782562,670.253052 410.011230,666.697021 
	C410.003357,666.471741 409.984253,666.021362 410.256226,665.728271 
	C410.654175,663.803589 410.842804,662.173889 410.895477,660.539856 
	C411.127533,653.335876 410.365051,645.942261 411.739166,638.967407 
	C414.123932,626.862549 417.821381,615.016296 420.968384,603.061646 
M472.659607,741.971252 
	C470.924835,745.935486 469.205994,749.906799 467.451172,753.862122 
	C465.375610,758.540405 465.992126,760.421143 470.754486,762.375122 
	C472.714539,763.179382 474.919586,763.721497 477.027222,763.769775 
	C483.990997,763.929443 490.977356,764.102966 497.924805,763.720886 
	C506.263397,763.262390 512.566345,758.627625 516.199463,751.512329 
	C519.493408,745.061340 521.587952,737.948364 523.763489,730.987305 
	C527.132019,720.208862 530.058228,709.292664 533.346802,698.488098 
	C533.757751,697.138000 535.094666,695.250244 536.232910,695.070374 
	C545.569336,693.595642 554.957153,692.440613 564.336731,691.246521 
	C567.763184,690.810242 569.345154,692.330444 570.002747,695.856323 
	C572.961182,711.718689 576.392334,727.494507 579.230774,743.376953 
	C580.501892,750.489868 584.991821,754.869751 590.394409,758.561523 
	C591.768860,759.500854 594.920288,759.484863 596.159119,758.511963 
	C597.384705,757.549744 598.109314,754.504211 597.537903,752.918823 
	C590.656677,733.826904 587.969543,713.856934 584.695557,693.996826 
	C584.152161,690.700317 584.968933,689.369934 588.350708,688.452515 
	C592.261230,687.391602 595.863342,685.193726 599.599304,683.489502 
	C599.460876,682.613953 599.322510,681.738403 599.184082,680.862915 
	C596.842896,680.523438 594.422852,679.623108 592.173645,679.939148 
	C580.786499,681.538757 581.683228,683.984802 579.573547,670.345581 
	C579.471863,669.688354 579.472351,669.015442 579.373962,668.357544 
	C575.787842,644.359497 574.377563,619.987183 567.005249,596.640320 
	C564.909790,590.004333 563.129395,583.254639 560.687317,576.751343 
	C559.992004,574.899719 557.686584,573.309631 555.748657,572.343750 
	C552.388794,570.669128 548.796570,569.382324 545.188965,568.313904 
	C543.207275,567.727051 540.956360,567.593750 538.896729,567.840149 
	C536.272766,568.154114 533.726440,569.088135 531.134521,569.703735 
	C521.987366,571.876587 514.546936,575.841614 513.195496,586.410645 
	C512.985657,588.051636 512.427612,589.645996 512.067688,591.270203 
	C508.039917,609.447693 504.456421,627.737732 499.876556,645.774841 
	C495.098114,664.594055 489.351776,683.167175 484.047211,701.853149 
	C480.321899,714.976135 476.627716,728.107971 472.659607,741.971252 
z"/>
<path fill="#FE912B" opacity="1.000000" stroke="none" 
	d="
M425.986450,586.963379 
	C423.293365,591.211731 420.600281,595.460144 417.907227,599.708496 
	C417.471863,599.538696 417.036499,599.368896 416.601135,599.199097 
	C418.100494,595.964233 419.344910,592.580139 421.138123,589.517334 
	C442.168243,553.597229 472.550812,529.837219 513.553955,521.575989 
	C553.814636,513.464294 590.861023,522.081482 623.939148,546.802124 
	C638.702759,557.835571 650.303894,571.623474 659.598450,587.435852 
	C660.342102,588.700928 660.706482,590.188965 660.853943,591.786682 
	C659.414429,590.531616 658.401123,589.038391 657.316223,587.599121 
	C651.590027,580.002625 645.845825,572.419678 639.948486,564.555420 
	C639.194519,563.672485 638.599976,563.066040 637.780640,562.286438 
	C636.382568,561.581116 635.209229,561.048950 634.212524,560.144653 
	C628.589600,554.839783 622.789978,549.907166 616.994324,544.989136 
	C616.998352,545.003784 617.028625,545.007935 616.923340,544.679688 
	C608.698730,539.868469 600.890930,534.653259 592.401184,531.040649 
	C567.583801,520.480225 541.625793,518.158447 515.246399,523.250671 
	C488.652924,528.384277 465.491364,540.446228 446.252930,560.129944 
	C445.362518,560.999695 444.680023,561.729736 443.716125,562.682129 
	C440.277161,566.931763 437.119598,570.959106 433.981567,574.994263 
	C434.001099,575.002014 433.982574,574.964233 433.660095,575.053223 
	C432.545593,576.424377 431.753510,577.706543 430.981750,578.995605 
	C431.002045,579.002502 430.983582,578.963806 430.659576,579.044861 
	C429.877136,580.082214 429.418701,581.038513 428.981750,581.998901 
	C429.003204,582.003052 428.986542,581.962708 428.664246,582.073547 
	C427.548126,583.787354 426.754333,585.390320 425.980713,586.997314 
	C426.000885,587.001343 425.986450,586.963379 425.986450,586.963379 
z"/>
<path fill="#FE9532" opacity="1.000000" stroke="none" 
	d="
M498.020966,784.886597 
	C470.085022,775.998413 447.931671,759.133911 430.563507,735.766907 
	C416.339966,716.630676 408.171082,695.052429 405.156708,671.468018 
	C404.946594,669.824097 404.972443,668.145569 405.015991,666.486450 
	C405.018219,666.400208 406.221985,666.345398 406.937103,667.043457 
	C409.175079,690.900940 416.603119,712.087952 430.062073,731.445679 
	C433.686279,736.187317 436.945068,740.825500 440.685364,745.035889 
	C456.464874,762.798645 475.842316,775.245361 498.081238,783.715332 
	C498.044800,784.365845 498.032898,784.626221 498.020966,784.886597 
z"/>
<path fill="#FE8C23" opacity="1.000000" stroke="none" 
	d="
M498.357178,785.049438 
	C498.032898,784.626221 498.044800,784.365845 498.469116,783.861206 
	C522.257996,790.629700 545.873413,792.025269 569.857788,787.025024 
	C587.916443,783.260193 604.026428,775.214050 619.571472,765.544312 
	C619.922668,765.919800 620.062927,766.070129 620.203186,766.220398 
	C609.836243,774.600952 597.985046,780.226990 585.486633,784.496948 
	C556.662598,794.344360 527.703979,794.621460 498.357178,785.049438 
z"/>
<path fill="#FE9939" opacity="1.000000" stroke="none" 
	d="
M675.019165,663.007568 
	C675.751038,660.343262 676.482910,657.678894 677.600220,655.028809 
	C677.541138,687.516052 667.283813,716.493347 646.990356,741.874146 
	C645.338196,743.940491 643.428528,745.800964 641.222839,747.695068 
	C640.519348,747.413086 640.231445,747.193115 640.101196,746.677246 
	C644.199097,741.298706 648.139343,736.216125 652.339966,730.912598 
	C654.182251,728.152405 655.847778,725.660950 657.332947,723.066345 
	C667.987244,704.452576 674.715881,684.673706 675.019165,663.007568 
z"/>
<path fill="#FEE4BE" opacity="1.000000" stroke="none" 
	d="
M406.997833,658.992432 
	C406.900574,660.439331 406.803314,661.886230 406.706055,663.333130 
	C406.312225,663.453796 405.918365,663.574402 405.524536,663.695007 
	C405.022034,662.587891 404.089325,661.484070 404.080872,660.373230 
	C403.929321,640.391907 407.433899,621.071228 414.855560,602.493286 
	C415.011169,602.103760 415.504852,601.849426 416.407501,601.674744 
	C411.666870,617.875549 406.336945,633.935730 407.047607,651.902588 
	C407.061371,654.815247 407.029602,656.903870 406.997833,658.992432 
z"/>
<path fill="#FEE5BF" opacity="1.000000" stroke="none" 
	d="
M677.274658,652.744080 
	C676.257874,653.024780 675.505127,653.010498 674.376221,652.580994 
	C674.000000,650.782959 674.000000,649.400024 674.265259,647.723389 
	C674.353699,644.613342 674.176880,641.797119 674.000000,638.651123 
	C674.000000,637.881775 674.000000,637.442078 674.000000,637.002441 
	C672.985535,622.846558 668.317322,609.742615 662.482971,596.973083 
	C662.005066,595.927124 661.574158,594.859619 661.097168,593.450500 
	C662.134277,594.235718 663.538574,595.201477 664.204590,596.535767 
	C671.614563,611.380310 676.107300,627.039795 677.016357,643.663147 
	C677.176514,646.592529 677.363953,649.520447 677.274658,652.744080 
z"/>
<path fill="#FFCE92" opacity="1.000000" stroke="none" 
	d="
M429.918121,731.145508 
	C416.603119,712.087952 409.175079,690.900940 407.053619,667.380249 
	C407.576111,666.697510 408.052826,666.445312 409.016602,666.093140 
	C409.503662,665.993286 409.984253,666.021362 409.984253,666.021362 
	C409.984253,666.021362 410.003357,666.471741 409.714478,666.958618 
	C410.120087,672.974792 410.488098,678.568726 411.570007,684.021118 
	C414.871796,700.661438 422.173096,715.665405 430.790527,730.127991 
	C430.343994,730.561096 430.131073,730.853271 429.918121,731.145508 
z"/>
<path fill="#FEE4BE" opacity="1.000000" stroke="none" 
	d="
M410.256226,665.728271 
	C409.984253,666.021362 409.503662,665.993286 409.263489,665.982117 
	C408.595062,663.711914 408.166870,661.452942 407.368225,659.093140 
	C407.029602,656.903870 407.061371,654.815247 407.045471,652.367493 
	C407.661621,650.692688 408.913330,649.370789 408.899170,648.062500 
	C408.740204,633.351074 412.954834,619.600098 417.907654,606.009766 
	C418.308105,604.911011 419.453979,604.083862 420.610901,603.096069 
	C417.821381,615.016296 414.123932,626.862549 411.739166,638.967407 
	C410.365051,645.942261 411.127533,653.335876 410.895477,660.539856 
	C410.842804,662.173889 410.654175,663.803589 410.256226,665.728271 
z"/>
<path fill="#FE9F43" opacity="1.000000" stroke="none" 
	d="
M444.504333,566.487793 
	C439.419373,573.628235 434.158722,580.652039 429.315063,587.952576 
	C426.391602,592.358948 424.115936,597.195190 421.278259,602.074829 
	C421.315552,600.555908 421.360687,598.699280 421.988037,597.066345 
	C423.211212,593.882690 424.760162,590.824158 426.080322,587.338623 
	C425.986450,586.963379 426.000885,587.001343 426.344910,587.009094 
	C427.454803,585.332153 428.220673,583.647400 428.986542,581.962708 
	C428.986542,581.962708 429.003204,582.003052 429.344971,582.001709 
	C430.119049,580.988159 430.551331,579.976013 430.983582,578.963806 
	C430.983582,578.963806 431.002045,579.002502 431.349243,579.029785 
	C432.458466,577.692749 433.220520,576.328491 433.982574,574.964233 
	C433.982574,574.964233 434.001099,575.002014 434.332825,575.052734 
	C437.678802,571.988342 440.693085,568.873230 443.903442,565.943970 
	C444.234406,566.249207 444.369354,566.368469 444.504333,566.487793 
z"/>
<path fill="#FFD095" opacity="1.000000" stroke="none" 
	d="
M640.107910,564.832031 
	C645.845825,572.419678 651.590027,580.002625 657.316223,587.599121 
	C658.401123,589.038391 659.414429,590.531616 660.778198,592.183167 
	C661.095581,592.366333 661.047546,592.687622 661.022827,592.848206 
	C660.199280,593.254211 659.400513,593.499634 658.262573,593.524414 
	C651.637207,584.188782 645.350952,575.073792 639.285889,565.820801 
	C639.707397,565.399170 639.907654,565.115601 640.107910,564.832031 
z"/>
<path fill="#FE8C23" opacity="1.000000" stroke="none" 
	d="
M637.597351,751.561462 
	C632.010986,756.369324 626.424622,761.177185 620.520752,766.102722 
	C620.062927,766.070129 619.922668,765.919800 619.799194,765.317261 
	C625.439392,760.139160 631.062805,755.413208 636.906921,750.913147 
	C637.284180,751.279907 637.440796,751.420654 637.597351,751.561462 
z"/>
<path fill="#FE8C23" opacity="1.000000" stroke="none" 
	d="
M639.943604,746.973206 
	C640.231445,747.193115 640.519348,747.413086 640.939697,747.874268 
	C640.087158,749.167603 639.102051,750.219727 637.857178,751.416687 
	C637.440796,751.420654 637.284180,751.279907 637.048767,750.637695 
	C637.961182,749.081970 638.952393,748.027588 639.943604,746.973206 
z"/>
<path fill="#053939" opacity="1.000000" stroke="none" 
	d="
M472.789612,741.603516 
	C476.627716,728.107971 480.321899,714.976135 484.047211,701.853149 
	C489.351776,683.167175 495.098114,664.594055 499.876556,645.774841 
	C504.456421,627.737732 508.039917,609.447693 512.067688,591.270203 
	C512.427612,589.645996 512.985657,588.051636 513.195496,586.410645 
	C514.546936,575.841614 521.987366,571.876587 531.134521,569.703735 
	C533.726440,569.088135 536.272766,568.154114 538.896729,567.840149 
	C540.956360,567.593750 543.207275,567.727051 545.188965,568.313904 
	C548.796570,569.382324 552.388794,570.669128 555.748657,572.343750 
	C557.686584,573.309631 559.992004,574.899719 560.687317,576.751343 
	C563.129395,583.254639 564.909790,590.004333 567.005249,596.640320 
	C574.377563,619.987183 575.787842,644.359497 579.373962,668.357544 
	C579.472351,669.015442 579.471863,669.688354 579.573547,670.345581 
	C581.683228,683.984802 580.786499,681.538757 592.173645,679.939148 
	C594.422852,679.623108 596.842896,680.523438 599.184082,680.862915 
	C599.322510,681.738403 599.460876,682.613953 599.599304,683.489502 
	C595.863342,685.193726 592.261230,687.391602 588.350708,688.452515 
	C584.968933,689.369934 584.152161,690.700317 584.695557,693.996826 
	C587.969543,713.856934 590.656677,733.826904 597.537903,752.918823 
	C598.109314,754.504211 597.384705,757.549744 596.159119,758.511963 
	C594.920288,759.484863 591.768860,759.500854 590.394409,758.561523 
	C584.991821,754.869751 580.501892,750.489868 579.230774,743.376953 
	C576.392334,727.494507 572.961182,711.718689 570.002747,695.856323 
	C569.345154,692.330444 567.763184,690.810242 564.336731,691.246521 
	C554.957153,692.440613 545.569336,693.595642 536.232910,695.070374 
	C535.094666,695.250244 533.757751,697.138000 533.346802,698.488098 
	C530.058228,709.292664 527.132019,720.208862 523.763489,730.987305 
	C521.587952,737.948364 519.493408,745.061340 516.199463,751.512329 
	C512.566345,758.627625 506.263397,763.262390 497.924805,763.720886 
	C490.977356,764.102966 483.990997,763.929443 477.027222,763.769775 
	C474.919586,763.721497 472.714539,763.179382 470.754486,762.375122 
	C465.992126,760.421143 465.375610,758.540405 467.451172,753.862122 
	C469.205994,749.906799 470.924835,745.935486 472.789612,741.603516 
M544.323547,644.883789 
	C542.070923,654.418945 539.684509,663.926270 537.685913,673.514404 
	C537.315674,675.290466 538.260071,678.979797 539.020752,679.099548 
	C546.842529,680.331421 554.748474,681.039490 562.637390,681.829651 
	C566.476562,682.214233 567.314453,680.740356 566.642212,676.813599 
	C564.011719,661.449646 561.758789,646.019104 559.514099,630.591797 
	C558.534668,623.860352 557.913879,617.076782 557.130188,610.316895 
	C556.526855,610.274658 555.923584,610.232422 555.320251,610.190186 
	C551.729065,621.486328 548.137939,632.782410 544.323547,644.883789 
z"/>
<path fill="#FE8E26" opacity="1.000000" stroke="none" 
	d="
M489.208679,775.828857 
	C503.912689,781.199219 518.886780,785.292419 534.653748,785.971497 
	C554.540222,786.828064 573.616577,783.216736 592.666260,776.023071 
	C593.493896,776.349976 593.725464,776.605042 593.638062,777.034058 
	C558.178040,791.652222 523.085876,791.720581 488.193298,776.633911 
	C488.630981,776.221680 488.919830,776.025269 489.208679,775.828857 
z"/>
<path fill="#FE9D40" opacity="1.000000" stroke="none" 
	d="
M641.573242,739.558411 
	C645.421692,733.782898 649.485413,728.137817 653.078552,722.207642 
	C664.299927,703.687927 670.088135,683.489563 671.211243,661.903137 
	C671.290710,660.375000 671.727905,658.865479 671.998718,657.347290 
	C672.503479,657.347229 673.008240,657.347168 673.512939,657.347107 
	C673.625671,658.961121 673.738342,660.575195 673.636169,662.931091 
	C672.567139,677.721375 669.787598,691.411743 664.208374,704.306885 
	C660.392944,713.125549 655.447876,721.455566 650.748779,730.210693 
	C647.750244,733.687561 645.010681,736.957764 642.096191,740.061157 
	C641.921204,739.894226 641.573242,739.558411 641.573242,739.558411 
z"/>
<path fill="#FE9D3F" opacity="1.000000" stroke="none" 
	d="
M431.024170,729.987122 
	C422.173096,715.665405 414.871796,700.661438 411.570007,684.021118 
	C410.488098,678.568726 410.120087,672.974792 409.722351,667.183960 
	C410.782562,670.253052 411.681458,673.559448 412.287262,676.918640 
	C415.820190,696.509888 422.865845,714.646484 434.418030,730.947998 
	C435.086426,731.891235 435.633636,732.920288 436.168945,734.393433 
	C436.100647,734.877380 435.796448,735.166626 435.530487,734.985840 
	C433.851074,733.199036 432.437622,731.593079 431.024170,729.987122 
z"/>
<path fill="#FE922D" opacity="1.000000" stroke="none" 
	d="
M608.864014,543.157227 
	C598.013489,538.626953 587.360107,533.522522 576.262207,529.712830 
	C562.618042,525.029114 548.280090,524.380127 533.422974,524.506531 
	C532.902832,523.823242 532.879761,523.567078 533.256775,523.217407 
	C542.106323,523.411987 550.634216,523.072754 558.989197,524.116943 
	C577.145386,526.385986 594.243774,532.030273 609.395142,542.557007 
	C609.099915,542.890320 608.981995,543.023743 608.864014,543.157227 
z"/>
<path fill="#FFCE92" opacity="1.000000" stroke="none" 
	d="
M651.007812,730.004028 
	C655.447876,721.455566 660.392944,713.125549 664.208374,704.306885 
	C669.787598,691.411743 672.567139,677.721375 673.637024,663.339600 
	C674.047180,663.005798 674.241516,663.005310 674.727539,663.006226 
	C674.715881,684.673706 667.987244,704.452576 657.332947,723.066345 
	C655.847778,725.660950 654.182251,728.152405 652.211365,730.679077 
	C651.550903,730.445679 651.279358,730.224854 651.007812,730.004028 
z"/>
<path fill="#FE8F28" opacity="1.000000" stroke="none" 
	d="
M532.856689,523.310852 
	C532.879761,523.567078 532.902832,523.823242 532.955383,524.463867 
	C511.867157,526.335083 492.168396,532.449585 473.307343,542.878845 
	C472.673950,542.643188 472.559326,542.516724 472.689789,542.174194 
	C491.218964,530.312317 511.264191,524.325562 532.856689,523.310852 
z"/>
<path fill="#FEE4BE" opacity="1.000000" stroke="none" 
	d="
M674.000000,648.017151 
	C674.000000,649.400024 674.000000,650.782959 674.000000,652.580444 
	C673.753418,653.806885 673.506897,654.618591 673.260376,655.430359 
	C671.001648,635.075928 667.514099,615.241028 658.041199,596.850647 
	C658.572754,596.646362 659.104248,596.442139 659.635742,596.237915 
	C661.681335,600.755615 664.244751,605.117737 665.658813,609.825134 
	C668.177063,618.208252 669.986267,626.803772 672.145081,635.296997 
	C672.287964,635.859070 672.879211,636.307129 673.630981,636.905334 
	C674.000000,637.442078 674.000000,637.881775 673.734863,638.945435 
	C673.646484,642.385376 673.823242,645.201233 674.000000,648.017151 
z"/>
<path fill="#FE9E42" opacity="1.000000" stroke="none" 
	d="
M639.064697,565.958740 
	C645.350952,575.073792 651.637207,584.188782 657.974731,593.658203 
	C657.209717,593.567017 656.105103,593.326233 655.620789,592.644653 
	C649.606140,584.179749 643.681702,575.650635 637.824524,566.622925 
	C638.038635,565.977051 638.162292,565.846191 638.479614,565.779663 
	C638.673218,565.843872 639.064697,565.958740 639.064697,565.958740 
z"/>
<path fill="#FE9D3F" opacity="1.000000" stroke="none" 
	d="
M488.951813,775.593628 
	C488.919830,776.025269 488.630981,776.221680 487.859131,776.538757 
	C477.182953,770.187317 466.989807,763.715149 456.967590,757.065491 
	C457.138550,756.887939 457.473816,756.526489 457.473816,756.526489 
	C467.880859,762.803833 478.287903,769.081116 488.951813,775.593628 
z"/>
<path fill="#FE9D40" opacity="1.000000" stroke="none" 
	d="
M593.957031,776.860107 
	C593.725464,776.605042 593.493896,776.349976 593.033936,775.965759 
	C601.490906,770.791809 610.176208,765.746948 619.358643,760.791138 
	C619.971619,761.002869 620.087402,761.125549 619.997437,761.508545 
	C611.180176,766.799316 602.568604,771.829712 593.957031,776.860107 
z"/>
<path fill="#FE9D40" opacity="1.000000" stroke="none" 
	d="
M624.542603,756.469238 
	C630.032227,750.941406 635.521851,745.413574 641.292358,739.722107 
	C641.573242,739.558411 641.921204,739.894226 641.958801,740.363342 
	C636.413025,746.320984 630.829590,751.809509 625.073486,757.088135 
	C624.781372,756.741882 624.661987,756.605530 624.542603,756.469238 
z"/>
<path fill="#FE9D3F" opacity="1.000000" stroke="none" 
	d="
M440.468353,739.627930 
	C446.026337,745.076782 451.584320,750.525635 457.308044,756.250488 
	C457.473816,756.526489 457.138550,756.887939 456.660583,756.935425 
	C450.720612,751.377625 445.258636,745.772278 439.964172,740.031738 
	C440.131683,739.896423 440.468353,739.627930 440.468353,739.627930 
z"/>
<path fill="#FE9F43" opacity="1.000000" stroke="none" 
	d="
M463.069916,550.039001 
	C459.989166,552.683472 456.908447,555.327942 453.323914,557.898010 
	C452.693634,557.694763 452.567230,557.565979 452.637665,557.181763 
	C455.720093,554.571411 458.605652,552.216431 461.885925,549.905396 
	C462.543762,549.979248 462.806824,550.009155 463.069916,550.039001 
z"/>
<path fill="#FE9F43" opacity="1.000000" stroke="none" 
	d="
M443.997559,562.459839 
	C444.680023,561.729736 445.362518,560.999695 446.660339,560.260559 
	C448.103210,560.071167 448.930756,559.890869 449.922974,559.895142 
	C450.087646,560.079773 450.430603,560.436462 450.430603,560.436462 
	C448.644257,562.361023 446.857880,564.285583 444.787903,566.348999 
	C444.369354,566.368469 444.234406,566.249207 444.039734,565.541626 
	C443.985870,564.122253 443.991699,563.291016 443.997559,562.459839 
z"/>
<path fill="#FE922D" opacity="1.000000" stroke="none" 
	d="
M618.515503,549.483276 
	C615.433472,547.551025 612.351440,545.618774 609.066711,543.421875 
	C608.981995,543.023743 609.099915,542.890320 609.700928,542.717407 
	C612.465515,543.454590 614.747070,544.231262 617.028625,545.007935 
	C617.028625,545.007935 616.998352,545.003784 616.855713,545.308289 
	C617.536987,546.668945 618.360840,547.725037 619.015869,548.955200 
	C618.846924,549.129211 618.515503,549.483276 618.515503,549.483276 
z"/>
<path fill="#FE9E42" opacity="1.000000" stroke="none" 
	d="
M634.035828,560.516846 
	C635.209229,561.048950 636.382568,561.581116 637.657166,562.690002 
	C637.934265,564.083008 638.110107,564.899170 638.286011,565.715393 
	C638.162292,565.846191 638.038635,565.977051 637.721008,566.301392 
	C635.621826,564.684082 633.716614,562.873230 631.862122,560.572449 
	C631.912842,560.082520 632.246399,559.710266 632.549438,559.832458 
	C633.246948,560.142029 633.641418,560.329468 634.035828,560.516846 
z"/>
<path fill="#FE8F28" opacity="1.000000" stroke="none" 
	d="
M472.960205,542.959656 
	C470.346680,545.081360 467.561554,547.013062 464.277252,548.858765 
	C463.778076,548.772827 463.443359,548.427734 463.650879,548.178711 
	C466.720520,546.083191 469.582642,544.236755 472.444733,542.390259 
	C472.559326,542.516724 472.673950,542.643188 472.960205,542.959656 
z"/>
<path fill="#FE9E42" opacity="1.000000" stroke="none" 
	d="
M629.578613,558.445923 
	C628.096069,557.339722 626.613464,556.233582 625.034424,554.477295 
	C624.946228,553.588623 624.954529,553.349915 625.255859,553.239990 
	C627.090820,554.852905 628.632751,556.336975 630.023071,557.974731 
	C629.871399,558.128418 629.578613,558.445923 629.578613,558.445923 
z"/>
<path fill="#FE9D40" opacity="1.000000" stroke="none" 
	d="
M619.688477,760.690430 
	C620.995239,759.239624 622.469299,757.978638 624.242981,756.593445 
	C624.661987,756.605530 624.781372,756.741882 624.870422,757.337402 
	C623.294434,758.947083 621.748779,760.097717 620.203125,761.248291 
	C620.087402,761.125549 619.971619,761.002869 619.688477,760.690430 
z"/>
<path fill="#FE9D3F" opacity="1.000000" stroke="none" 
	d="
M436.250427,734.730347 
	C437.680878,736.057983 438.961609,737.532776 440.355347,739.317749 
	C440.468353,739.627930 440.131683,739.896423 439.694031,739.853210 
	C438.103058,738.262207 436.949768,736.714417 435.796448,735.166626 
	C435.796448,735.166626 436.100647,734.877380 436.250427,734.730347 
z"/>
<path fill="#FE922D" opacity="1.000000" stroke="none" 
	d="
M621.879150,552.136414 
	C620.868713,551.422913 619.858215,550.709473 618.681641,549.739624 
	C618.515503,549.483276 618.846924,549.129211 619.310913,549.064514 
	C620.684753,549.817261 621.594666,550.634644 622.348022,551.622986 
	C622.191528,551.793884 621.879150,552.136414 621.879150,552.136414 
z"/>
<path fill="#FE922D" opacity="1.000000" stroke="none" 
	d="
M624.962769,553.111145 
	C624.954529,553.349915 624.946228,553.588623 624.931519,554.187073 
	C624.022766,553.928772 623.120422,553.310669 622.048645,552.414551 
	C621.879150,552.136414 622.191528,551.793884 622.609497,551.756409 
	C623.672546,552.182983 624.317688,552.647095 624.962769,553.111145 
z"/>
<path fill="#FE8F28" opacity="1.000000" stroke="none" 
	d="
M463.299072,549.957031 
	C462.806824,550.009155 462.543762,549.979248 462.104187,549.684692 
	C462.432953,549.089233 462.938171,548.758484 463.443359,548.427734 
	C463.443359,548.427734 463.778076,548.772827 463.946106,548.947144 
	C464.019226,549.450684 463.823944,549.701904 463.299072,549.957031 
z"/>
<path fill="#FE9F43" opacity="1.000000" stroke="none" 
	d="
M453.009216,558.017334 
	C452.783478,558.572876 452.368622,558.934753 451.538757,559.209839 
	C451.123779,559.123108 450.824738,558.810425 450.986389,558.595337 
	C451.578949,558.065857 452.009857,557.751465 452.440796,557.437134 
	C452.567230,557.565979 452.693634,557.694763 453.009216,558.017334 
z"/>
<path fill="#FE9E42" opacity="1.000000" stroke="none" 
	d="
M631.740234,560.263184 
	C631.279053,560.288269 631.024597,560.089172 630.843994,559.481201 
	C630.883911,559.115906 631.191895,558.805115 631.398193,558.917725 
	C631.866211,559.211975 632.080139,559.438599 632.246399,559.710266 
	C632.246399,559.710266 631.912842,560.082520 631.740234,560.263184 
z"/>
<path fill="#FE9F43" opacity="1.000000" stroke="none" 
	d="
M451.268982,559.283447 
	C451.260437,559.722961 451.059784,559.962830 450.621399,560.299927 
	C450.430603,560.436462 450.087646,560.079773 450.069092,559.710388 
	C450.271271,559.109680 450.529327,558.932800 450.824738,558.810425 
	C450.824738,558.810425 451.123779,559.123108 451.268982,559.283447 
z"/>
<path fill="#FE9E42" opacity="1.000000" stroke="none" 
	d="
M630.725830,559.267090 
	C630.293152,559.262207 630.052490,559.064819 629.712097,558.635986 
	C629.578613,558.445923 629.871399,558.128418 630.228760,558.098145 
	C630.844910,558.266968 631.046814,558.512695 631.191895,558.805115 
	C631.191895,558.805115 630.883911,559.115906 630.725830,559.267090 
z"/>
<path fill="#FFDCA8" opacity="1.000000" stroke="none" 
	d="
M450.986389,558.595337 
	C450.529327,558.932800 450.271271,559.109680 449.904419,559.525757 
	C448.930756,559.890869 448.103210,560.071167 446.868286,560.120850 
	C465.491364,540.446228 488.652924,528.384277 515.246399,523.250671 
	C541.625793,518.158447 567.583801,520.480225 592.401184,531.040649 
	C600.890930,534.653259 608.698730,539.868469 616.923340,544.679688 
	C614.747070,544.231262 612.465515,543.454590 609.878174,542.517456 
	C594.243774,532.030273 577.145386,526.385986 558.989197,524.116943 
	C550.634216,523.072754 542.106323,523.411987 533.256775,523.217407 
	C511.264191,524.325562 491.218964,530.312317 472.689789,542.174194 
	C469.582642,544.236755 466.720520,546.083191 463.650879,548.178711 
	C462.938171,548.758484 462.432953,549.089233 461.709473,549.640686 
	C458.605652,552.216431 455.720093,554.571411 452.637634,557.181763 
	C452.009857,557.751465 451.578949,558.065857 450.986389,558.595337 
z"/>
<path fill="#FFDCA8" opacity="1.000000" stroke="none" 
	d="
M631.398193,558.917725 
	C631.046814,558.512695 630.844910,558.266968 630.380432,557.944458 
	C628.632751,556.336975 627.090820,554.852905 625.255859,553.239990 
	C624.317688,552.647095 623.672546,552.182983 622.765991,551.585510 
	C621.594666,550.634644 620.684753,549.817261 619.479797,548.890503 
	C618.360840,547.725037 617.536987,546.668945 616.851685,545.293701 
	C622.789978,549.907166 628.589600,554.839783 634.212524,560.144653 
	C633.641418,560.329468 633.246948,560.142029 632.549438,559.832458 
	C632.080139,559.438599 631.866211,559.211975 631.398193,558.917725 
z"/>
<path fill="#FFDCA8" opacity="1.000000" stroke="none" 
	d="
M443.716125,562.682129 
	C443.991699,563.291016 443.985870,564.122253 443.843689,565.355713 
	C440.693085,568.873230 437.678802,571.988342 434.313293,575.044983 
	C437.119598,570.959106 440.277161,566.931763 443.716125,562.682129 
z"/>
<path fill="#FFDCA8" opacity="1.000000" stroke="none" 
	d="
M428.664246,582.073547 
	C428.220673,583.647400 427.454803,585.332153 426.324768,587.005066 
	C426.754333,585.390320 427.548126,583.787354 428.664246,582.073547 
z"/>
<path fill="#FFDCA8" opacity="1.000000" stroke="none" 
	d="
M433.660095,575.053223 
	C433.220520,576.328491 432.458466,577.692749 431.328918,579.022827 
	C431.753510,577.706543 432.545593,576.424377 433.660095,575.053223 
z"/>
<path fill="#FFDCA8" opacity="1.000000" stroke="none" 
	d="
M430.659607,579.044861 
	C430.551331,579.976013 430.119049,580.988159 429.323547,581.997559 
	C429.418701,581.038513 429.877136,580.082214 430.659607,579.044861 
z"/>
<path fill="#FFDCA8" opacity="1.000000" stroke="none" 
	d="
M638.479614,565.779663 
	C638.110107,564.899170 637.934265,564.083008 637.881836,562.863220 
	C638.599976,563.066040 639.194519,563.672485 639.948486,564.555420 
	C639.907654,565.115601 639.707397,565.399170 639.285889,565.820801 
	C639.064697,565.958740 638.673218,565.843872 638.479614,565.779663 
z"/>
<path fill="#FFD49C" opacity="1.000000" stroke="none" 
	d="
M435.530487,734.985840 
	C436.949768,736.714417 438.103058,738.262207 439.526489,739.988525 
	C445.258636,745.772278 450.720612,751.377625 456.489624,757.112976 
	C466.989807,763.715149 477.182953,770.187317 487.710327,776.754639 
	C523.085876,791.720581 558.178040,791.652222 593.638062,777.034058 
	C602.568604,771.829712 611.180176,766.799316 619.997437,761.508606 
	C621.748779,760.097717 623.294434,758.947083 625.043091,757.547241 
	C630.829590,751.809509 636.413025,746.320984 642.133789,740.530273 
	C645.010681,736.957764 647.750244,733.687561 650.748779,730.210693 
	C651.279358,730.224854 651.550903,730.445679 651.951050,730.900024 
	C648.139343,736.216125 644.199097,741.298706 640.101196,746.677246 
	C638.952393,748.027588 637.961182,749.081970 636.828064,750.411743 
	C631.062805,755.413208 625.439392,760.139160 619.588257,765.092163 
	C604.026428,775.214050 587.916443,783.260193 569.857788,787.025024 
	C545.873413,792.025269 522.257996,790.629700 498.493652,783.471008 
	C475.842316,775.245361 456.464874,762.798645 440.685364,745.035889 
	C436.945068,740.825500 433.686279,736.187317 430.062073,731.445679 
	C430.131073,730.853271 430.343994,730.561096 430.790527,730.127991 
	C432.437622,731.593079 433.851074,733.199036 435.530487,734.985840 
z"/>
<path fill="#FEDEAD" opacity="1.000000" stroke="none" 
	d="
M674.265259,647.723389 
	C673.823242,645.201233 673.646484,642.385376 673.734863,639.275146 
	C674.176880,641.797119 674.353699,644.613342 674.265259,647.723389 
z"/>
<path fill="#F5D8A9" opacity="1.000000" stroke="none" 
	d="
M544.435181,644.481201 
	C548.137939,632.782410 551.729065,621.486328 555.320251,610.190186 
	C555.923584,610.232422 556.526855,610.274658 557.130188,610.316895 
	C557.913879,617.076782 558.534668,623.860352 559.514099,630.591797 
	C561.758789,646.019104 564.011719,661.449646 566.642212,676.813599 
	C567.314453,680.740356 566.476562,682.214233 562.637390,681.829651 
	C554.748474,681.039490 546.842529,680.331421 539.020752,679.099548 
	C538.260071,678.979797 537.315674,675.290466 537.685913,673.514404 
	C539.684509,663.926270 542.070923,654.418945 544.435181,644.481201 
z"/>
</svg>